<?xml version="1.0" encoding="UTF-8"?>
<!DOCTYPE svg PUBLIC "-//W3C//DTD SVG 1.1//EN" "http://www.w3.org/Graphics/SVG/1.1/DTD/svg11.dtd">
<!-- Creator: CorelDRAW 2021.5 -->
<svg xmlns="http://www.w3.org/2000/svg" xml:space="preserve" width="100mm" height="100mm" version="1.1" style="shape-rendering:geometricPrecision; text-rendering:geometricPrecision; image-rendering:optimizeQuality; fill-rule:evenodd; clip-rule:evenodd"
viewBox="0 0 10000 10000"
 xmlns:xlink="http://www.w3.org/1999/xlink"
 xmlns:xodm="http://www.corel.com/coreldraw/odm/2003">
 <defs>
  <style type="text/css">
   <![CDATA[
    .fil0 {fill:#1DA1F2;fill-rule:nonzero}
   ]]>
  </style>
 </defs>
 <g id="Слой_x0020_1">
  <metadata id="CorelCorpID_0Corel-Layer"/>
  <path id="Dark_Blue" class="fil0" d="M8750 10000l-7500 0c-690,0 -1250,-560 -1250,-1250l0 -7500c0,-690 560,-1250 1250,-1250l7500 0c690,0 1250,560 1250,1250l0 7500c0,690 -560,1250 -1250,1250zm-4910 -2460c2357.5,0 3647.5,-1955 3647.5,-3647.5 0,-55 0,-110 -2.5,-165 250,-180 467.5,-407.5 640,-665 -230,102.5 -477.5,170 -737.5,202.5 265,-157.5 467.5,-410 565,-710 -247.5,147.5 -522.5,252.5 -815,310 -235,-250 -567.5,-405 -935,-405 -707.5,0 -1282.5,575 -1282.5,1282.5 0,100 12.5,197.5 32.5,292.5 -1065,-52.5 -2010,-565 -2642.5,-1340 -110,190 -172.5,410 -172.5,645 0,445 227.5,837.5 570,1067.5 -210,-7.5 -407.5,-65 -580,-160l0 17.5c0,620 442.5,1140 1027.5,1257.5 -107.5,30 -220,45 -337.5,45 -82.5,0 -162.5,-7.5 -240,-22.5 162.5,510 637.5,880 1197.5,890 -440,345 -992.5,550 -1592.5,550 -102.5,0 -205,-5 -305,-17.5 565,360 1240,572.5 1962.5,572.5z"/>
 </g>
</svg>
